<?xml version="1.0" encoding="utf-8"?>
<svg xmlns="http://www.w3.org/2000/svg" xmlns:ev="http://www.w3.org/2001/xml-events" xmlns:xlink="http://www.w3.org/1999/xlink" baseProfile="full" height="300" version="1.1" width="800">
  <defs>
    <marker id="id1" markerHeight="10" markerWidth="10" orient="auto" refX="10" refY="6">
      <path d="M0,0 L0,12 L10,6 z" fill="#000000"/>
    </marker>
  </defs>
  <rect fill="none" height="150" rx="10" ry="10" stroke="#000000" stroke-width="2" width="200" x="50" y="80"/>
  <text font-family="Arial" font-size="18px" font-weight="bold" text-anchor="middle" x="150.0" y="60">Quantum Layer</text>
  <rect fill="none" height="150" rx="10" ry="10" stroke="#000000" stroke-width="2" width="200" x="330" y="80"/>
  <text font-family="Arial" font-size="18px" font-weight="bold" text-anchor="middle" x="430.0" y="60">Interface Layer</text>
  <rect fill="none" height="150" rx="10" ry="10" stroke="#000000" stroke-width="2" width="200" x="610" y="80"/>
  <text font-family="Arial" font-size="18px" font-weight="bold" text-anchor="middle" x="710.0" y="60">Classical Layer</text>
  <text font-family="Arial" font-size="14px" x="70" y="130">• Superposition</text>
  <text font-family="Arial" font-size="14px" x="70" y="160">• Entanglement</text>
  <text font-family="Arial" font-size="14px" x="70" y="190">• Tunneling</text>
  <text font-family="Arial" font-size="14px" x="350" y="130">• Measurement</text>
  <text font-family="Arial" font-size="14px" x="350" y="160">• Decoherence</text>
  <text font-family="Arial" font-size="14px" x="350" y="190">• Amplification</text>
  <text font-family="Arial" font-size="14px" x="630" y="130">• Action</text>
  <text font-family="Arial" font-size="14px" x="630" y="160">• Potentials</text>
  <text font-family="Arial" font-size="14px" x="630" y="190">• Firing</text>
  <path d="M 250 155.0 L 330 155.0" fill="none" marker-end="url(#arrow)" stroke="#000000" stroke-width="2"/>
  <path d="M 330 155.0 L 250 155.0" fill="none" marker-end="url(#arrow)" stroke="#000000" stroke-width="2"/>
  <path d="M 530 155.0 L 610 155.0" fill="none" marker-end="url(#arrow)" stroke="#000000" stroke-width="2"/>
  <path d="M 610 155.0 L 530 155.0" fill="none" marker-end="url(#arrow)" stroke="#000000" stroke-width="2"/>
</svg>
